<svg xmlns="http://www.w3.org/2000/svg" width="40" height="40" viewBox="0 0 40 40"><defs><style>.a{fill:#e7e7e8;}.b{fill:#fff;}.c{fill:#1e91cf;}</style></defs><g transform="translate(-1216 -4175)"><circle class="a" cx="20" cy="20" r="20" transform="translate(1216 4175)"/><g transform="translate(1220 4179)"><circle class="b" cx="16" cy="16" r="16" transform="translate(0 0)"/></g><path class="c" d="M10.133.014C11.062,0,11.984.007,12.905,0a4.416,4.416,0,0,0,1.241,2.957,5,5,0,0,0,3.006,1.269V7.083A7.589,7.589,0,0,1,14.174,6.4a8.76,8.76,0,0,1-1.149-.659c-.007,2.07.007,4.141-.014,6.2a5.415,5.415,0,0,1-.957,2.794,5.282,5.282,0,0,1-4.19,2.276,5.17,5.17,0,0,1-2.893-.73,5.347,5.347,0,0,1-2.588-4.048c-.014-.355-.021-.709-.007-1.056a5.338,5.338,0,0,1,6.19-4.736c.014,1.049-.028,2.1-.028,3.148a2.433,2.433,0,0,0-3.105,1.5,2.813,2.813,0,0,0-.1,1.142,2.413,2.413,0,0,0,2.482,2.035,2.382,2.382,0,0,0,1.964-1.142,1.636,1.636,0,0,0,.291-.752c.071-1.269.043-2.531.05-3.8.007-2.857-.007-5.708.014-8.558Z" transform="translate(1226.59 4186.492)"/></g></svg>