<svg xmlns="http://www.w3.org/2000/svg" width="40" height="40" viewBox="0 0 40 40"><defs><style>.a{fill:#e7e7e8;}.b{fill:#fff;}.c{fill:#1e91cf;}</style></defs><g transform="translate(-1216 -4175)"><circle class="a" cx="20" cy="20" r="20" transform="translate(1216 4175)"/><g transform="translate(1220 4179)"><circle class="b" cx="16" cy="16" r="16" transform="translate(0 0)"/></g><path class="c" d="M15.212,6.813c.011.151.011.3.011.452a9.819,9.819,0,0,1-9.887,9.887A9.82,9.82,0,0,1,0,15.592a7.189,7.189,0,0,0,.839.043A6.959,6.959,0,0,0,5.153,14.15,3.481,3.481,0,0,1,1.9,11.74a4.382,4.382,0,0,0,.656.054,3.675,3.675,0,0,0,.914-.118A3.475,3.475,0,0,1,.689,8.265V8.222a3.5,3.5,0,0,0,1.571.441A3.48,3.48,0,0,1,1.183,4.015,9.877,9.877,0,0,0,8.348,7.652a3.923,3.923,0,0,1-.086-.8,3.478,3.478,0,0,1,6.014-2.378,6.842,6.842,0,0,0,2.205-.839,3.466,3.466,0,0,1-1.528,1.915,6.966,6.966,0,0,0,2-.538,7.47,7.47,0,0,1-1.743,1.8Z" transform="translate(1228.507 4184.733)"/></g></svg>