<svg xmlns="http://www.w3.org/2000/svg" width="50" height="50" viewBox="0 0 50 50"><defs><style>.a{fill:#1e91cf;opacity:0.1;}.b{fill:#fff;}.c{fill:#6d6e71;}</style></defs><g transform="translate(-100 -999)"><circle class="a" cx="25" cy="25" r="25" transform="translate(100 999)"/><g transform="translate(34.131 4.131)"><circle class="b" cx="21" cy="21" r="21" transform="translate(69.869 998.869)"/><g transform="translate(78.754 1010.002)"><g transform="translate(0 0)"><path class="c" d="M23.05,60.339H21.89V56.407a2.659,2.659,0,0,0-2.657-2.657H2.657A2.659,2.659,0,0,0,0,56.407V67.14A2.659,2.659,0,0,0,2.657,69.8h7.355V71.62H7.759a.932.932,0,1,0,0,1.865h6.376a.932.932,0,0,0,0-1.865H11.882V69.8h2.082a.932.932,0,0,0,0-1.865H2.657a.792.792,0,0,1-.793-.792V56.407a.792.792,0,0,1,.793-.793H19.232a.792.792,0,0,1,.793.793v3.931h-1.16a2.255,2.255,0,0,0-2.253,2.253v8.64a2.255,2.255,0,0,0,2.253,2.253h4.19a.932.932,0,0,0,0-1.865h-4.19a.388.388,0,0,1-.388-.388v-8.64a.388.388,0,0,1,.388-.388h4.19a.388.388,0,0,1,.388.388v6.521a.93.93,0,1,0,1.86,0V62.592A2.255,2.255,0,0,0,23.05,60.339Z" transform="translate(0 -53.75)"/></g></g></g></g></svg>