<svg xmlns="http://www.w3.org/2000/svg" width="40" height="40" viewBox="0 0 40 40"><defs><style>.a{fill:#e7e7e8;}.b{fill:#fff;}.c{fill:#1e91cf;}</style></defs><g transform="translate(-1216 -4175)"><circle class="a" cx="20" cy="20" r="20" transform="translate(1216 4175)"/><g transform="translate(1220 4179)"><circle class="b" cx="16" cy="16" r="16" transform="translate(0 0)"/></g><g transform="translate(1227.731 4186.5)"><path class="c" d="M4.331,16A4.336,4.336,0,0,1,0,11.669V4.331A4.336,4.336,0,0,1,4.331,0h7.339A4.336,4.336,0,0,1,16,4.331v7.339A4.336,4.336,0,0,1,11.669,16Zm.232-8A3.437,3.437,0,1,0,8,4.563,3.44,3.44,0,0,0,4.563,8Zm6.624-4.636a1.293,1.293,0,1,0,1.292-1.293A1.294,1.294,0,0,0,11.187,3.364Z" transform="translate(0.269 0.5)"/></g></g></svg>