<svg xmlns="http://www.w3.org/2000/svg" width="33.291" height="29.261" viewBox="0 0 33.291 29.261"><defs><style>.a{fill:#08a74c;}</style></defs><path class="a" d="M28.113,6.253c-4.446-2.938-10.356-3.606-15.265-2.72A11.039,11.039,0,0,0,0,1.372S4.224,4.961,3.538,8.1c-5,5.1-2.623,10.773,0,13.453C4.224,24.7,0,28.291,0,28.291a11.063,11.063,0,0,0,12.848-2.138c4.9.88,10.808.217,15.265-2.726,6.893-4.4,6.915-12.75,0-17.174ZM17,23.4a19.623,19.623,0,0,1-5.092-.657l-1.143,1.1a10.388,10.388,0,0,1-2.115,1.583,8.273,8.273,0,0,1-2.989.851c.058-.1.109-.206.16-.3a7.293,7.293,0,0,0,.925-5.7,7.02,7.02,0,0,1-3.005-5.44c0-4.739,5.938-8.579,13.259-8.579s13.259,3.839,13.259,8.579S24.324,23.4,17,23.4Zm-6.361-6.526A1.98,1.98,0,1,1,12.59,14.86v.029a1.965,1.965,0,0,1-1.949,1.984Zm4.264-1.949a1.981,1.981,0,0,1,3.961-.069v.035A1.981,1.981,0,0,1,14.905,14.923Zm8.287,1.949a1.981,1.981,0,1,1,1.949-2.012v.029a1.959,1.959,0,0,1-1.949,1.984Z" transform="translate(0 -0.202)"/></svg>