<svg xmlns="http://www.w3.org/2000/svg" width="50" height="50" viewBox="0 0 50 50"><defs><style>.a{fill:#1e91cf;opacity:0.1;}.b{fill:#fff;}.c{fill:#6d6e71;}</style></defs><g transform="translate(-411 -999)"><circle class="a" cx="25" cy="25" r="25" transform="translate(411 999)"/><g transform="translate(345.308 4.308)"><circle class="b" cx="21" cy="21" r="21" transform="translate(69.692 998.692)"/><g transform="translate(79.721 1008.73)"><g transform="translate(0 0)"><path class="c" d="M21.929,10.179a1.536,1.536,0,0,0-1.3-1.508L19.269,8.45a8.571,8.571,0,0,0-.524-1.264l.817-1.169a1.535,1.535,0,0,0-.181-1.973L18.041,2.72a1.534,1.534,0,0,0-1.977-.149s-.009,0-.014.009L10.912,6.422h-.05a4.75,4.75,0,0,0,.108,9.5h.108a4.75,4.75,0,0,0,4.352-6.384.813.813,0,0,0-1.526.56,3.125,3.125,0,0,1-2.862,4.2h-.072a3.125,3.125,0,0,1-.09-6.249l.28,0a.8.8,0,0,0,.5-.163l5.287-3.955,1.233,1.214L17.4,6.269a1.6,1.6,0,0,0-.108,1.648,6.967,6.967,0,0,1,.433,1.043,1.581,1.581,0,0,0,1.264,1.088l1.314.212.014,1.752-1.354.239a1.593,1.593,0,0,0-1.237,1.093,7.355,7.355,0,0,1-.429,1.043,1.587,1.587,0,0,0,.126,1.661l.781,1.079L16.985,18.36l-1.12-.786a1.61,1.61,0,0,0-1.652-.108,6.667,6.667,0,0,1-1,.42,1.591,1.591,0,0,0-1.079,1.264l-.212,1.336-1.752.014-.235-1.332a1.6,1.6,0,0,0-1.1-1.246A7.168,7.168,0,0,1,7.784,17.5a1.591,1.591,0,0,0-1.652.126l-1.1.795L3.8,17.2l.777-1.111a1.59,1.59,0,0,0,.1-1.652,7.667,7.667,0,0,1-.442-1.047,1.6,1.6,0,0,0-1.26-1.079L1.643,12.1l-.018-1.738,1.341-.235a1.6,1.6,0,0,0,1.246-1.1,7.168,7.168,0,0,1,.424-1.056A1.591,1.591,0,0,0,4.51,6.323l-.795-1.1L4.93,3.993l1.106.772a1.6,1.6,0,0,0,1.661.1,6.578,6.578,0,0,1,1.075-.447,1.589,1.589,0,0,0,1.1-1.269l.212-1.309,1.824-.014a.813.813,0,0,0,0-1.625h0L10,.214A1.536,1.536,0,0,0,8.5,1.51L8.276,2.869a8.214,8.214,0,0,0-1.318.551L5.8,2.612a1.535,1.535,0,0,0-1.973.181L2.506,4.133a1.534,1.534,0,0,0-.149,1.977l.822,1.142a8.937,8.937,0,0,0-.515,1.273l-1.382.248h0A1.577,1.577,0,0,0,0,10.246v.041l.014,1.9a1.536,1.536,0,0,0,1.3,1.508l1.386.221a8.693,8.693,0,0,0,.533,1.264L2.42,16.332A1.535,1.535,0,0,0,2.6,18.305l1.341,1.323a1.539,1.539,0,0,0,1.977.149l1.142-.822a8.937,8.937,0,0,0,1.273.515l.244,1.386A1.536,1.536,0,0,0,10.1,22.125h.014l1.9-.014a1.536,1.536,0,0,0,1.508-1.3l.221-1.386a9.419,9.419,0,0,0,1.21-.51l1.169.817a1.535,1.535,0,0,0,1.973-.181l1.323-1.341a1.528,1.528,0,0,0,.149-1.977l-.813-1.124a9.464,9.464,0,0,0,.524-1.264l1.4-.248a1.533,1.533,0,0,0,1.269-1.526Z" transform="translate(0 -0.201)"/></g></g></g></g></svg>