<svg xmlns="http://www.w3.org/2000/svg" width="50" height="50" viewBox="0 0 50 50"><defs><style>.a{fill:#1e91cf;opacity:0.1;}.b{fill:#fff;}.c{fill:#6d6e71;}</style></defs><g transform="translate(-720 -999)"><circle class="a" cx="25" cy="25" r="25" transform="translate(720 999)"/><g transform="translate(654 4)"><circle class="b" cx="21" cy="21" r="21" transform="translate(70 999)"/><g transform="translate(79.114 1010.12)"><g transform="translate(8.506 0)"><g transform="translate(0 0)"><path class="c" d="M181.084,41.3h-5.011a.876.876,0,0,0-.874.874V56.327a.874.874,0,1,0,1.748,0V43.048h3.263v1.515a.874.874,0,1,0,1.748,0V42.174A.877.877,0,0,0,181.084,41.3Z" transform="translate(-175.2 -41.3)"/></g></g><g transform="translate(0 6.186)"><path class="c" d="M22.9,168.7H14.391a.877.877,0,0,0-.874.874v10.953H1.748v-6.219H5.011v3.229a.874.874,0,1,0,1.748,0v-4.1a.877.877,0,0,0-.874-.874H.874a.877.877,0,0,0-.874.874V181.4a.876.876,0,0,0,.874.874H14.391a.876.876,0,0,0,.874-.874V170.448h6.758v10.079H18.76v-6.851a.874.874,0,0,0-1.748,0V181.4a.876.876,0,0,0,.874.874H22.9a.876.876,0,0,0,.874-.874V169.574A.877.877,0,0,0,22.9,168.7Z" transform="translate(0 -168.7)"/></g></g></g></g></svg>